<svg xmlns="http://www.w3.org/2000/svg" xmlns:svg="http://www.w3.org/2000/svg" id="svg2" width="512mm" height="512mm" version="1.1" viewBox="0 0 1814.173 1814.173"><defs id="defs4"><marker id="marker4512" orient="auto" refX="0" refY="0" style="overflow:visible"><path id="path4514" d="M 0.0,0.0 L 5.0,-5.0 L -12.5,0.0 L 5.0,5.0 L 0.0,0.0 z" transform="scale(0.8) translate(12.5,0)" style="fill-rule:evenodd;stroke:#1976d2;stroke-width:1pt;stroke-opacity:1;fill:#fff;fill-opacity:1"/></marker><marker style="overflow:visible" id="Arrow1Lstart" orient="auto" refX="0" refY="0"><path style="fill-rule:evenodd;stroke:#1976d2;stroke-width:1pt;stroke-opacity:1;fill:#fff;fill-opacity:1" id="path4208" d="M 0.0,0.0 L 5.0,-5.0 L -12.5,0.0 L 5.0,5.0 L 0.0,0.0 z" transform="scale(0.8) translate(12.5,0)"/></marker></defs><metadata id="metadata7"/><circle style="fill:#1976d2;fill-opacity:1;stroke:none;stroke-width:5.9000001;stroke-linecap:round;stroke-linejoin:miter;stroke-miterlimit:4;stroke-dasharray:none;stroke-opacity:1" id="path4178" cx="899.036" cy="935.341" r="652.559"/><path style="fill:#000;fill-opacity:.24025975;stroke:none;stroke-width:5.9000001;stroke-linecap:round;stroke-linejoin:miter;stroke-miterlimit:4;stroke-dasharray:none;stroke-opacity:1" id="path4178-3" d="m 1180.6138,761.25155 -397.79692,586.48635 230.40242,230.4024 a 652.55853,652.55853 0 0 0 515.1523,-469.1328 L 1180.6138,761.25155 Z"/><path style="fill:#fff;fill-opacity:1;fill-rule:evenodd;stroke:#1976d2;stroke-width:13.60000038;stroke-linecap:butt;stroke-linejoin:miter;stroke-miterlimit:4;stroke-dasharray:none;stroke-opacity:1" id="path4176" d="m 703.29568,640.10033 c 0,0 -62.09786,90.61312 -84.48779,144.65142 -26.49785,122.73311 44.15742,168.66683 151.63581,319.05845 l -2.08379,245.8099 251.87809,0 0,-245.8099 c 0,0 77.6015,-28.5779 110.2687,-109.23097 30.2773,-74.75286 27.0683,-193.76648 27.0683,-193.76648 z"/><rect style="fill:#fff;fill-opacity:1;stroke:#1976d2;stroke-width:13.60000038;stroke-linecap:round;stroke-linejoin:miter;stroke-miterlimit:4;stroke-dasharray:none;stroke-opacity:1" id="rect4136" width="109.084" height="219.899" x="1289.996" y="43.667" ry="43.047" transform="matrix(0.8660254,0.5,-0.5,0.8660254,0,0)"/><rect style="fill:#fff;fill-opacity:1;stroke:#1976d2;stroke-width:13.60000038;stroke-linecap:round;stroke-linejoin:miter;stroke-miterlimit:4;stroke-dasharray:none;stroke-opacity:1" id="rect4136-5" width="109.084" height="252.797" x="1180.048" y="40.667" ry="49.487" transform="matrix(0.8660254,0.5,-0.5,0.8660254,0,0)"/><rect style="fill:#fff;fill-opacity:1;stroke:#1976d2;stroke-width:13.60000038;stroke-linecap:round;stroke-linejoin:miter;stroke-miterlimit:4;stroke-dasharray:none;stroke-opacity:1" id="rect4136-8" width="109.084" height="297.816" x="1070.101" y="37.667" ry="58.3" transform="matrix(0.8660254,0.5,-0.5,0.8660254,0,0)"/><rect style="fill:#fff;fill-opacity:1;stroke:#1976d2;stroke-width:13.60000038;stroke-linecap:round;stroke-linejoin:miter;stroke-miterlimit:4;stroke-dasharray:none;stroke-opacity:1" id="rect4136-1" width="109.084" height="219.899" x="958.421" y="35.667" ry="43.047" transform="matrix(0.8660254,0.5,-0.5,0.8660254,0,0)"/><path style="fill:#fff;fill-opacity:1;fill-rule:evenodd;stroke:#1976d2;stroke-width:12.19999981;stroke-linecap:butt;stroke-linejoin:miter;stroke-miterlimit:4;stroke-dasharray:none;stroke-opacity:1" id="path4186" d="m 707.67725,640.85267 143.17855,38.54881 c 0,0 39.4733,34.66779 27.90054,81.29964 -10.45038,42.10926 -58.66289,44.51639 -58.66289,44.51639 L 705.87743,773.82104"/><rect style="fill:#ff9800;fill-opacity:1;stroke:#ff9800;stroke-width:12.48825073;stroke-linecap:round;stroke-linejoin:miter;stroke-miterlimit:4;stroke-dasharray:none;stroke-opacity:0" id="rect4628" width="314.259" height="96.066" x="738.795" y="1163.302" ry="7.819"/><rect style="fill:#1976d2;fill-opacity:1;stroke:#1976d2;stroke-width:8.70396328;stroke-linecap:round;stroke-linejoin:miter;stroke-miterlimit:4;stroke-dasharray:none;stroke-opacity:1" id="rect4624" width="171.002" height="47.28" x="810.423" y="1187.136" ry="15.011"/></svg>